 <svg  version="1.0" xmlns="http://www.w3.org/2000/svg"  width="300.000000pt" height="300.000000pt" viewBox="0 0 300.000000 300.000000"  preserveAspectRatio="xMidYMid meet">  <g transform="translate(0.000000,300.000000) scale(0.100000,-0.100000)" fill="#ffffff" stroke="none"> <path d="M1021 2731 c-21 -16 -28 -17 -45 -6 -14 9 -53 13 -116 12 -84 -2 -100 -5 -142 -30 l-48 -28 0 -70 c0 -50 -6 -81 -20 -109 -16 -31 -17 -41 -7 -47 21 -13 40 -70 33 -99 -9 -34 9 -54 48 -54 31 0 32 -2 28 -34 -3 -28 -24 -55 -104 -138 -55 -57 -107 -114 -116 -128 -13 -19 -18 -54 -21 -165 -7 -291 -6 -317 16 -363 l22 -43 -27 -10 c-34 -13 -70 -46 -88 -81 -57 -110 81 -232 174 -153 l30 25 16 -40 c9 -22 16 -47 16 -56 0 -51 137 -240 218 -299 26 -19 108 -66 184 -105 152 -78 194 -109 214 -157 23 -53 18 -126 -9 -151 -34 -32 -52 -28 -28 5 34 48 31 94 -8 134 -51 51 -121 31 -172 -49 -43 -67 -38 -123 17 -203 l25 -37 272 3 c150 1 334 3 410 4 96 1 137 4 137 13 0 6 -12 36 -27 66 -39 80 -42 146 -9 251 81 266 116 384 116 396 0 8 20 74 44 147 24 73 71 219 105 323 91 284 175 538 214 650 39 112 82 252 92 305 5 22 22 49 47 72 27 25 41 47 43 67 1 16 10 37 20 47 26 27 5 28 -72 4 -209 -63 -457 -98 -559 -79 -25 5 -115 13 -202 19 -86 6 -191 15 -233 21 -116 15 -248 13 -296 -5 -61 -22 -100 -66 -118 -134 -9 -31 -19 -64 -24 -72 -11 -22 -102 -81 -113 -74 -16 10 -2 80 26 129 23 38 31 44 54 41 15 -2 21 -1 15 1 -7 2 -13 14 -12 26 0 12 3 16 6 10 6 -16 33 -17 33 -2 0 5 -4 7 -10 4 -5 -3 -10 -2 -10 4 0 5 8 12 18 15 9 3 25 23 35 43 9 21 22 46 29 55 9 13 9 22 -1 42 -8 13 -11 32 -7 42 9 24 -31 64 -63 64 -14 0 -37 -9 -50 -19z m70 -1 c31 -17 22 -28 -15 -16 -22 7 -30 13 -23 18 15 10 15 10 38 -2z m-116 -36 c7 -15 16 -19 30 -14 29 10 81 -4 76 -21 -12 -48 -13 -54 -2 -39 15 22 40 -4 25 -27 -15 -23 -34 -28 -34 -8 0 9 -5 13 -11 9 -8 -4 -9 6 -5 37 4 30 3 37 -3 24 -8 -17 -10 -18 -15 -4 -5 12 -17 15 -47 12 -31 -3 -44 0 -54 14 -7 10 -17 14 -22 10 -10 -11 25 -37 51 -38 18 -1 17 -2 -4 -8 -18 -6 -35 -1 -60 16 -19 13 -46 22 -60 22 -24 -2 -24 -2 -2 -6 12 -2 19 -9 16 -15 -4 -6 0 -14 7 -19 23 -15 34 -10 13 6 -10 8 -14 14 -9 14 6 0 18 -6 28 -13 18 -14 17 -15 -3 -21 -29 -9 -70 2 -70 20 0 8 -15 19 -32 24 -24 7 -27 9 -11 10 12 1 23 5 25 10 5 15 120 16 148 2 l25 -12 -25 22 c-22 19 -22 21 -5 18 11 -2 24 -14 30 -25z m-195 6 c0 -5 -9 -10 -21 -10 -11 0 -17 5 -14 10 3 6 13 10 21 10 8 0 14 -4 14 -10z m315 -10 c4 -7 -3 -8 -22 -4 -38 9 -42 14 -10 14 14 0 29 -5 32 -10z m-292 -56 c29 -24 37 -26 92 -21 33 3 70 9 82 13 19 5 22 3 18 -16 -3 -17 -1 -20 12 -15 15 5 15 4 0 -13 -9 -10 -17 -24 -17 -30 0 -7 -7 -12 -16 -12 -8 0 -12 5 -9 10 4 6 -7 10 -27 9 -28 0 -30 -2 -13 -9 17 -8 15 -9 -10 -8 -16 1 -43 1 -59 0 -23 -2 -26 -5 -17 -16 8 -10 9 -16 1 -21 -13 -8 -13 -25 -1 -25 5 0 13 9 16 20 5 15 15 20 41 20 32 0 35 -2 29 -22 -4 -13 -15 -30 -26 -40 -23 -20 -24 -28 -4 -28 9 0 23 16 32 35 9 19 21 35 27 35 6 0 5 -5 -2 -12 -17 -17 -15 -33 3 -18 22 18 18 3 -7 -32 -17 -24 -19 -34 -10 -49 8 -13 8 -26 1 -48 -8 -22 -7 -40 1 -66 11 -32 10 -39 -8 -58 -20 -23 -42 -60 -42 -73 0 -4 15 8 33 27 22 22 68 48 128 73 142 58 138 55 132 124 -5 54 -3 61 23 91 18 20 51 40 84 51 30 10 56 23 58 29 2 5 -18 12 -45 14 -45 3 -44 4 14 5 59 2 93 -11 56 -21 -10 -3 20 -5 67 -6 47 -1 144 -8 215 -16 72 -8 164 -15 205 -15 67 -1 73 -2 56 -15 -33 -25 -119 -28 -288 -10 -236 25 -275 27 -258 16 26 -16 230 -43 370 -48 155 -5 174 -9 145 -26 -36 -21 -342 -13 -463 13 -61 13 -115 19 -133 15 -41 -9 -28 -19 29 -21 26 -1 76 -9 112 -18 39 -10 138 -20 248 -25 167 -8 204 -13 191 -26 -12 -11 -233 -24 -319 -19 -96 6 -206 28 -227 45 -12 11 -58 8 -69 -4 -4 -4 4 -7 18 -7 13 0 58 -12 99 -26 63 -22 97 -26 237 -31 112 -4 162 -9 159 -17 -14 -42 -355 -24 -466 25 -24 10 -48 16 -53 13 -17 -11 72 -44 169 -65 57 -12 134 -19 202 -20 113 0 136 -8 80 -28 -43 -15 -102 -14 -239 4 -128 17 -185 32 -201 52 -13 14 -45 18 -53 5 -3 -5 26 -20 64 -35 64 -25 253 -57 335 -57 43 0 65 -9 65 -25 0 -21 -80 -29 -157 -16 -104 18 -287 72 -296 87 -9 15 -47 19 -47 5 0 -13 83 -45 225 -86 72 -21 133 -43 137 -48 9 -15 0 -27 -20 -27 -24 0 -356 121 -363 132 -4 5 -17 8 -30 6 -23 -4 -23 -5 -4 -12 11 -5 40 -17 65 -28 25 -12 68 -29 95 -38 65 -23 165 -70 165 -77 0 -16 -118 10 -200 45 -115 48 -140 56 -140 44 0 -6 12 -13 28 -17 15 -3 63 -24 107 -46 45 -21 88 -39 97 -39 9 0 20 -5 24 -12 11 -18 -119 -1 -196 25 l-65 22 55 5 55 5 -67 7 c-36 4 -82 14 -102 22 -20 8 -38 11 -41 6 -3 -5 14 -15 37 -22 23 -7 50 -20 59 -29 17 -17 119 -59 144 -59 8 0 17 -5 21 -11 12 -20 -178 -7 -210 15 -15 10 -31 15 -34 11 -13 -12 43 -43 88 -50 25 -3 58 -8 74 -11 45 -9 11 -24 -57 -24 -74 0 -141 17 -163 41 -9 10 -21 19 -26 19 -12 0 2 -52 19 -72 11 -12 12 -21 4 -36 -5 -10 -12 -30 -15 -43 -13 -59 -29 -115 -37 -131 -6 -12 -5 -18 2 -18 8 0 8 -5 -1 -15 -9 -10 -9 -15 -1 -15 6 0 11 -7 11 -15 0 -8 -5 -15 -11 -15 -8 0 -7 -5 2 -16 10 -13 10 -17 -1 -24 -12 -8 -12 -10 1 -15 9 -3 15 -15 14 -27 -1 -12 9 -41 23 -65 l24 -43 -31 -29 c-47 -44 -75 -114 -67 -170 l6 -46 -27 35 c-71 92 -166 160 -246 175 -36 7 -38 10 -58 78 -19 61 -21 81 -13 161 4 50 8 141 9 202 l0 110 90 97 c49 54 100 104 112 112 15 10 24 29 28 62 4 27 14 59 22 72 15 23 14 24 -3 16 -11 -5 -34 -9 -52 -9 l-34 -1 -2 52 c-1 33 -8 58 -19 71 -18 19 -18 22 -1 53 16 31 17 32 30 14 14 -19 15 -19 36 2 l21 22 -37 6 c-36 7 -37 8 -34 49 3 36 6 41 30 44 21 3 26 0 22 -11 -3 -10 5 -19 24 -28 17 -7 28 -18 25 -24 -9 -25 21 -35 62 -20 22 8 56 14 75 15 19 0 42 5 50 11 12 9 12 10 -3 5 -10 -3 -50 -3 -89 1 -54 5 -77 12 -99 30 -27 23 -38 43 -23 43 3 0 20 -12 37 -26z m70 -61 c-13 -2 -33 -2 -45 0 -13 2 -3 4 22 4 25 0 35 -2 23 -4z m1614 -9 c-74 -40 -390 -105 -507 -104 -42 1 -44 2 -26 15 13 10 43 15 87 15 82 0 199 20 344 59 128 34 140 36 102 15z m-1437 -17 c0 -8 -11 -24 -24 -36 -32 -30 -46 -8 -15 25 25 27 39 31 39 11z m278 -13 c2 -1 -28 -6 -67 -10 -39 -3 -74 -11 -77 -16 -3 -5 6 -6 23 -2 25 7 27 6 14 -10 -8 -9 -19 -15 -25 -13 -6 2 -23 0 -38 -4 -16 -4 -28 -5 -28 -3 0 8 61 58 79 65 14 6 111 0 119 -7z m1190 -8 c-60 -53 -590 -148 -576 -103 3 7 35 14 89 18 104 8 370 62 435 88 67 27 85 26 52 -3z m-655 -13 c-13 -2 -33 -2 -45 0 -13 2 -3 4 22 4 25 0 35 -2 23 -4z m-678 -42 c-12 -12 -65 -26 -65 -17 0 3 15 10 33 15 43 12 42 12 32 2z m1291 0 c-4 -5 -29 -15 -56 -22 -34 -9 -46 -16 -38 -22 9 -6 5 -7 -11 -3 -13 2 -71 -6 -130 -19 -58 -13 -152 -31 -207 -40 -89 -15 -105 -15 -129 -2 -26 13 -22 14 76 21 88 5 344 55 444 85 40 12 57 13 51 2z m-1313 -41 c-3 -11 -13 -20 -22 -20 -14 0 -14 -2 -1 -10 13 -9 13 -10 0 -10 -13 0 -13 -1 0 -10 12 -7 10 -11 -10 -19 -22 -8 -22 -10 -5 -11 18 -1 18 -2 -5 -16 l-25 -15 25 5 c15 4 9 -2 -15 -13 -56 -26 -89 -36 -81 -23 3 6 20 14 37 17 23 5 28 10 18 16 -11 6 -10 9 4 15 9 3 17 12 17 20 0 8 6 14 13 14 8 0 7 4 -3 10 -13 9 -13 10 0 10 13 0 13 1 0 10 -11 7 -11 10 -2 10 7 0 10 5 7 10 -3 6 4 14 17 19 34 14 37 13 31 -9z m1207 -20 c8 -5 12 -12 8 -15 -10 -10 -280 -64 -403 -80 -135 -18 -165 -19 -165 -5 0 10 25 15 165 28 132 13 388 64 372 74 -6 4 -7 8 -2 8 6 0 17 -4 25 -10z m24 -165 c-31 -88 -100 -291 -155 -452 -54 -160 -117 -340 -139 -400 -43 -112 -82 -238 -151 -483 -23 -80 -61 -206 -85 -280 -45 -139 -51 -169 -35 -186 12 -13 62 -147 56 -152 -2 -2 -73 -8 -157 -13 -165 -9 -268 -3 -268 15 1 12 35 77 144 271 37 66 74 135 82 154 8 19 17 32 20 29 6 -7 -96 -208 -166 -328 -28 -46 -50 -90 -50 -97 0 -11 37 -13 180 -13 99 1 180 3 180 5 0 2 -14 27 -31 56 -16 28 -32 64 -35 79 -5 24 49 220 76 275 10 21 109 322 179 545 24 74 67 198 96 275 29 77 100 283 156 457 57 174 106 315 110 312 4 -2 5 6 1 18 -3 13 -1 19 5 15 6 -4 16 12 23 36 7 23 14 37 17 32 2 -6 -22 -82 -53 -170z m-105 -200 c-61 -187 -141 -421 -179 -520 -37 -99 -80 -222 -95 -273 -15 -51 -78 -242 -141 -423 -63 -182 -114 -343 -114 -357 0 -15 11 -51 25 -81 14 -30 23 -56 20 -59 -2 -3 -37 0 -77 7 -79 12 -108 33 -108 78 0 24 40 73 60 73 44 0 67 -54 34 -80 -12 -11 -18 -10 -32 5 -13 13 -14 19 -4 22 17 7 15 23 -3 23 -21 0 -29 -24 -15 -49 13 -25 47 -27 72 -4 38 34 8 93 -47 93 -62 0 -98 -60 -72 -123 13 -30 22 -37 59 -45 l43 -10 -65 0 c-36 -1 -82 2 -103 6 l-38 7 56 95 c105 179 232 453 340 730 48 124 92 234 97 244 13 23 91 226 124 320 13 39 22 77 20 85 -3 9 2 30 10 46 14 30 14 24 -1 -25 -19 -63 8 -3 48 106 24 66 52 133 61 149 10 17 14 21 10 10 -4 -11 -24 -69 -45 -130 -22 -60 -57 -165 -79 -232 -22 -67 -72 -199 -111 -295 -39 -95 -81 -204 -94 -243 -12 -38 -48 -129 -78 -201 -31 -72 -75 -187 -98 -255 -22 -68 -48 -134 -56 -147 -8 -13 -12 -29 -10 -35 6 -17 45 49 58 98 19 68 100 286 134 360 18 39 42 102 54 140 12 39 31 90 41 115 47 111 161 414 184 491 47 155 88 274 108 319 12 25 21 60 21 79 -1 25 2 30 9 20 7 -10 7 -7 3 10 -5 15 -3 21 3 17 6 -4 8 3 5 16 -4 19 -3 20 7 8 9 -12 10 -11 5 9 -5 14 -3 21 3 17 5 -3 10 4 10 17 0 23 41 121 47 115 3 -2 -45 -157 -106 -343z m24 192 c-62 -151 -84 -182 -29 -41 47 123 76 188 81 183 2 -3 -21 -67 -52 -142z m12 106 c-4 -10 -27 -72 -51 -138 -25 -66 -76 -194 -114 -285 -37 -91 -91 -222 -119 -293 -28 -70 -58 -138 -67 -152 -9 -13 -13 -28 -10 -33 3 -5 -24 -78 -60 -163 -36 -85 -76 -181 -89 -214 -77 -200 -119 -299 -141 -331 -14 -20 -65 -111 -114 -203 -133 -250 -134 -251 -171 -251 l-31 0 30 34 c61 70 81 204 44 290 -11 24 -37 62 -57 85 -21 22 -32 41 -26 41 6 0 11 -4 11 -9 0 -5 11 -11 23 -15 13 -3 36 -17 50 -32 22 -22 28 -24 33 -11 3 9 29 27 57 40 55 26 157 102 157 118 0 5 -27 9 -59 9 -33 0 -63 4 -66 10 -3 5 1 22 9 37 l14 28 11 -28 c6 -15 15 -27 20 -27 6 0 3 16 -5 36 -15 36 -12 84 5 84 5 0 12 -11 15 -25 4 -14 11 -25 16 -25 13 0 13 1 -5 43 -12 30 -13 40 -1 68 l13 32 13 -36 c6 -21 16 -37 21 -37 12 0 12 5 -6 48 -16 36 -13 82 4 82 5 0 12 -11 15 -25 4 -14 11 -25 16 -25 5 0 3 17 -5 38 -11 27 -13 45 -6 63 l9 24 11 -29 c16 -40 26 -25 12 17 -7 21 -8 43 -3 58 9 22 10 22 21 -14 7 -20 17 -37 22 -37 12 0 12 5 -6 48 -9 20 -13 47 -10 60 6 25 25 21 25 -6 0 -21 17 -48 25 -41 3 3 -2 26 -12 51 -10 28 -13 52 -8 64 7 17 9 16 18 -8 6 -16 14 -28 19 -28 11 0 10 5 -7 46 -12 29 -12 40 -3 57 12 21 12 21 16 2 5 -23 22 -45 22 -28 0 7 -4 24 -10 38 -7 19 -6 33 4 52 13 26 14 26 20 5 4 -12 12 -22 17 -22 12 0 11 4 -2 34 -7 14 -8 37 -4 53 6 27 7 28 22 8 15 -19 15 -19 9 9 -4 16 -4 42 0 59 6 30 7 30 21 11 14 -17 14 -16 8 22 -4 26 -2 44 4 49 6 3 11 1 11 -4 0 -6 4 -11 10 -11 6 0 6 9 0 25 -6 17 -6 33 2 51 l12 26 9 -24 c5 -13 11 -18 14 -11 2 7 -1 21 -7 32 -8 16 -7 27 2 44 l13 22 3 -22 c2 -13 8 -23 13 -23 11 0 11 3 -1 34 -6 18 -6 35 1 54 l11 27 10 -25 c13 -31 22 -12 10 21 -7 19 -2 40 26 99 19 41 45 102 57 135 18 47 28 61 46 63 31 5 49 20 49 42 0 11 13 21 40 29 29 9 40 17 40 31 0 11 5 20 11 20 7 0 8 -7 4 -17z m-45 -2 c0 -10 -25 -16 -222 -56 -140 -29 -319 -44 -302 -25 7 7 61 16 125 21 63 5 173 23 244 38 149 33 155 34 155 22z m-70 -60 c0 -4 -26 -15 -57 -24 -107 -29 -450 -83 -461 -73 -9 10 60 36 95 36 41 0 297 44 348 59 39 12 75 13 75 2z m-120 -66 c-14 -17 -111 -49 -197 -64 -114 -21 -263 -37 -263 -29 0 4 10 8 23 8 12 0 31 6 42 14 11 7 51 16 90 20 73 7 294 51 303 61 12 12 14 4 2 -10z m38 -12 c-6 -16 -25 -57 -41 -93 -16 -36 -34 -76 -39 -90 -10 -23 -12 -19 -34 49 -23 77 -23 91 1 91 31 0 93 32 98 51 3 10 10 19 16 19 7 0 7 -8 -1 -27z m-126 -150 c22 -73 25 -91 14 -110 -11 -22 -14 -16 -38 69 -15 51 -29 101 -33 111 -5 13 -2 17 12 17 16 0 24 -17 45 -87z m-52 5 c12 -40 27 -93 35 -117 11 -34 12 -48 3 -65 -11 -20 -12 -19 -22 14 -5 19 -24 81 -42 138 -29 94 -30 102 -13 102 14 0 23 -16 39 -72z m-26 -79 c37 -117 43 -146 34 -168 -9 -23 -15 -11 -62 134 -29 88 -51 163 -49 168 2 4 10 7 18 7 9 0 29 -48 59 -141z m-91 114 c3 -10 28 -89 56 -177 35 -110 48 -164 41 -175 -11 -19 -4 -36 -70 177 -28 90 -54 170 -57 178 -3 8 1 14 10 14 8 0 17 -8 20 -17z m-151 -348 c57 -182 102 -338 100 -347 -6 -29 -17 -21 -29 20 -5 20 -51 171 -102 334 -80 263 -111 388 -81 338 5 -9 55 -164 112 -345z m-17 215 c108 -340 145 -463 145 -485 0 -64 -22 -17 -80 168 -59 188 -128 398 -145 440 -6 15 -4 18 15 15 19 -3 28 -21 65 -138z m20 123 c4 -10 42 -135 85 -277 69 -227 77 -262 66 -283 -12 -23 -13 -22 -28 29 -9 29 -49 157 -88 283 -40 127 -75 238 -77 248 -4 12 0 17 15 17 11 0 23 -8 27 -17z m59 0 c3 -10 33 -110 67 -223 34 -113 64 -216 66 -230 3 -24 -11 -60 -20 -50 -3 3 -30 91 -61 196 -31 106 -65 218 -76 249 -11 32 -20 62 -20 67 0 16 39 8 44 -9z m105 -182 c42 -133 61 -206 56 -221 -4 -12 -11 -18 -15 -14 -4 5 -31 86 -59 180 -28 93 -57 189 -65 212 -14 39 -14 42 3 42 14 0 30 -38 80 -199z m-295 -33 c31 -106 84 -280 117 -386 48 -154 59 -198 51 -220 -10 -30 -14 -19 -178 513 -80 259 -84 284 -53 285 3 0 31 -87 63 -192z m28 57 c21 -71 70 -230 108 -353 38 -122 67 -229 64 -237 -7 -18 -24 -20 -24 -3 0 6 -43 154 -96 327 -53 174 -102 335 -109 359 -12 38 -12 43 3 40 11 -2 27 -43 54 -133z m-143 -32 c23 -76 85 -273 137 -437 67 -211 93 -307 89 -325 -5 -20 -8 -22 -15 -11 -4 8 -54 159 -110 335 -56 176 -118 373 -139 437 -35 109 -37 138 -11 138 3 0 25 -62 49 -137z m41 35 c80 -261 182 -588 201 -641 13 -36 18 -69 14 -84 -7 -31 -16 -24 -31 25 -46 150 -243 770 -249 785 -5 13 -2 17 14 17 17 0 25 -16 51 -102z m-75 -105 c30 -98 96 -304 146 -457 87 -268 90 -281 76 -310 l-14 -31 -21 65 c-11 36 -72 225 -136 420 -65 195 -125 385 -136 423 l-19 67 24 0 c22 0 28 -13 80 -177z m-87 59 c18 -59 89 -280 158 -491 117 -358 135 -431 106 -431 -4 0 -80 222 -168 493 -89 270 -164 499 -168 509 -7 15 -3 18 34 27 3 0 20 -47 38 -107z m56 -358 c75 -226 136 -414 136 -418 0 -3 -16 4 -36 16 -32 21 -39 34 -80 158 -82 250 -204 636 -204 647 0 13 31 23 42 14 4 -3 68 -191 142 -417z m-85 26 c68 -209 124 -388 125 -398 0 -11 -7 -18 -21 -20 -33 -5 -65 -50 -61 -86 2 -25 9 -32 30 -36 27 -5 27 -5 9 -29 -20 -27 -112 -47 -140 -31 -14 8 -14 9 1 10 24 0 81 51 70 62 -5 5 -27 4 -55 -3 -36 -10 -54 -10 -86 0 -37 11 -57 31 -31 31 17 0 11 20 -7 27 -25 8 -73 54 -73 69 0 6 -7 17 -15 24 -8 7 -15 21 -15 32 0 16 3 17 21 7 27 -14 86 -5 110 17 11 10 24 35 30 56 21 80 -51 168 -146 178 -48 5 -51 7 -75 55 -37 74 -41 221 -10 308 36 98 43 102 160 106 l56 1 123 -380z m820 151 c-6 -18 -13 -30 -15 -28 -2 2 1 18 7 36 6 18 13 30 15 28 2 -2 -1 -18 -7 -36z m-73 -138 c-8 -15 -15 -25 -16 -21 0 12 23 58 27 54 3 -2 -2 -17 -11 -33z m-27 -112 c-18 -39 -34 -69 -37 -67 -2 3 11 37 28 76 18 38 35 69 37 67 2 -2 -11 -36 -28 -76z m-900 -39 c20 -16 42 -45 50 -65 12 -32 11 -40 -5 -74 -22 -44 -60 -62 -101 -47 -37 13 -40 44 -9 80 26 31 48 26 28 -6 -10 -17 -10 -20 7 -20 21 0 30 16 23 43 -7 26 -59 22 -98 -8 -21 -16 -35 -21 -39 -14 -8 12 22 49 39 49 28 0 87 23 80 30 -13 12 -66 16 -84 6 -12 -7 -13 -7 -2 5 7 8 17 14 23 14 5 0 9 3 9 8 0 4 -2 7 -5 7 -3 0 -9 0 -15 0 -22 0 -61 -77 -59 -116 1 -23 -8 -61 -21 -91 -20 -43 -22 -58 -14 -95 l10 -43 21 45 21 45 -5 -46 c-8 -68 22 -115 43 -68 9 20 11 19 38 -21 40 -61 127 -100 221 -100 71 0 103 12 133 48 18 23 16 92 -3 92 -9 0 -12 -6 -8 -16 5 -15 -11 -33 -29 -34 -10 0 -10 52 0 66 11 17 48 34 73 34 12 0 39 -17 60 -39 31 -30 39 -46 39 -74 0 -69 -44 -133 -99 -144 l-34 -6 23 31 c13 18 20 37 16 47 -8 23 -28 14 -44 -18 -24 -50 -102 -74 -121 -38 -12 22 -86 36 -181 33 -36 -1 -96 6 -134 15 l-68 16 36 19 c20 10 36 22 36 27 0 4 -25 13 -55 20 -78 18 -132 62 -170 140 -39 79 -128 171 -166 171 -35 0 -52 -23 -47 -62 l5 -32 -18 23 c-29 36 -24 87 10 122 33 33 48 35 94 15 83 -36 165 -146 182 -243 10 -65 37 -49 34 20 l-2 32 -7 -35 c-5 -24 -8 -28 -9 -12 0 12 -12 46 -26 75 l-26 52 26 -28 c14 -15 25 -35 25 -43 0 -8 4 -13 9 -9 15 9 31 -29 31 -74 0 -48 18 -91 37 -91 22 0 7 72 -28 141 -28 56 -114 145 -192 197 -20 14 -35 27 -32 30 8 9 112 -65 160 -115 26 -26 53 -61 62 -77 21 -41 32 -18 26 58 -3 51 0 68 19 101 52 88 133 107 207 47z m-587 -18 c-73 -51 -62 -174 16 -174 23 0 56 35 47 49 -10 17 -23 13 -21 -6 2 -25 -28 -22 -32 3 -2 11 4 27 13 34 22 18 62 -2 71 -34 7 -30 0 -42 -37 -65 -25 -15 -36 -16 -71 -7 -77 21 -89 114 -22 181 19 19 40 35 47 35 6 0 1 -7 -11 -16z m1560 -114 c-20 -60 -38 -107 -41 -105 -2 3 9 42 24 87 38 112 44 128 49 128 2 0 -12 -49 -32 -110z m-1037 90 c-28 -12 -37 -12 -30 0 3 6 16 10 28 9 21 0 21 -1 2 -9z m821 -267 c-48 -120 -98 -238 -112 -263 -14 -25 -23 -38 -20 -30 16 49 212 517 215 514 2 -1 -36 -101 -83 -221z m-856 188 c0 -19 -26 -79 -52 -120 l-28 -45 0 34 c0 21 13 55 32 87 30 49 48 66 48 44z m-289 -159 c40 -76 101 -126 169 -137 22 -4 38 -11 34 -16 -10 -16 -88 -10 -121 11 -18 11 -33 16 -33 12 0 -19 67 -75 130 -108 64 -33 189 -148 177 -161 -3 -2 -38 15 -78 39 -91 53 -213 168 -257 241 -30 50 -78 164 -88 212 -5 18 -3 18 13 -3 10 -13 34 -54 54 -90z m318 -14 c15 -44 75 -101 125 -118 35 -11 59 -10 103 7 16 6 16 5 4 -10 -7 -9 -30 -21 -51 -27 -76 -21 -172 48 -199 142 -25 88 -25 86 -8 63 8 -11 20 -37 26 -57z m-40 -15 c1 -23 -3 -45 -9 -48 -6 -4 -10 19 -9 62 0 75 17 62 18 -14z m551 -213 c-15 -29 -26 -40 -36 -36 -9 3 -20 6 -26 6 -5 0 4 16 21 35 17 20 31 44 31 54 0 29 14 34 23 7 6 -18 2 -36 -13 -66z m-594 9 c34 -16 64 -29 69 -29 4 0 36 -31 72 -70 36 -38 69 -70 74 -70 5 0 9 11 9 24 0 27 -42 66 -70 66 -10 0 -23 7 -30 15 -9 11 1 11 57 -5 38 -10 81 -24 97 -29 36 -14 169 -15 161 -1 -3 6 -30 10 -58 10 -44 0 -154 20 -207 38 -8 3 4 9 27 13 23 4 51 13 63 19 13 7 20 7 20 1 0 -27 61 -42 163 -40 81 1 110 -2 142 -17 l40 -18 -45 -7 c-25 -3 -40 -7 -35 -8 6 -2 -1 -7 -15 -12 -18 -6 -10 -7 25 -3 28 3 65 13 83 21 54 26 47 8 -10 -24 -71 -41 -103 -46 -168 -28 -67 18 -122 19 -138 3 -17 -17 -15 -31 3 -24 20 7 91 -57 115 -105 50 -97 46 -173 -16 -266 -40 -60 -97 -88 -181 -88 -46 0 -56 4 -88 35 -67 65 -69 160 -4 214 44 37 75 43 107 19 39 -29 49 -65 28 -98 -18 -27 -56 -32 -64 -7 -2 7 2 10 12 6 12 -4 16 0 16 15 0 29 -24 26 -49 -5 -40 -50 -17 -78 62 -76 51 1 52 0 24 -14 -15 -8 -39 -13 -54 -12 -15 2 -28 -3 -31 -11 -3 -10 4 -12 29 -9 19 3 43 9 54 13 16 7 18 6 8 -6 -7 -7 -13 -19 -13 -27 0 -20 90 48 101 76 5 13 9 37 9 53 0 34 15 39 23 8 8 -31 27 -13 27 27 0 53 -22 95 -76 143 -46 41 -157 101 -187 101 -8 0 -34 26 -59 59 -53 68 -97 103 -177 143 -71 36 -26 25 55 -13z m435 -21 c-17 -15 -37 -28 -44 -28 -6 0 0 8 15 17 14 9 32 28 39 42 8 18 13 22 17 12 3 -8 -9 -27 -27 -43z m573 18 c-3 -15 -8 -25 -11 -23 -2 3 -1 17 3 31 3 15 8 25 11 23 2 -3 1 -17 -3 -31z m-790 -5 c13 -20 -60 -28 -125 -14 l-34 7 30 7 c45 10 123 10 129 0z m-16 -119 c20 -30 11 -28 -19 4 -13 15 -18 25 -10 22 8 -2 21 -14 29 -26z m220 -28 c12 -4 22 -11 22 -16 0 -5 -5 -6 -12 -2 -6 4 -25 11 -42 15 -19 4 -23 7 -11 8 11 0 30 -2 43 -5z m76 -23 c13 -5 16 -10 8 -15 -11 -6 -52 9 -52 19 0 7 22 5 44 -4z m85 5 c-15 -13 -49 -25 -49 -17 0 5 8 12 18 14 24 6 36 8 31 3z m-275 -89 c36 -25 86 -103 86 -134 0 -28 -28 -98 -36 -90 -3 3 -1 21 5 41 18 66 -27 151 -109 209 l-25 18 25 -12 c14 -7 38 -21 54 -32z m116 -141 c-1 -38 -14 -18 -23 34 -6 32 -6 34 8 16 8 -11 15 -34 15 -50z m468 6 c-6 -24 -13 -41 -15 -38 -2 2 1 23 7 46 6 23 13 40 15 38 2 -2 -1 -23 -7 -46z m-518 -110 c0 -10 -20 -34 -42 -51 -24 -18 -23 1 3 33 20 25 39 34 39 18z"/> <path d="M945 2600 c-13 -5 -14 -9 -5 -9 8 0 24 4 35 9 13 5 14 9 5 9 -8 0 -24 -4 -35 -9z"/> <path d="M1316 2496 c-17 -8 -24 -16 -18 -20 13 -8 52 10 52 24 0 6 -1 10 -2 9 -2 0 -16 -6 -32 -13z"/> <path d="M1230 2465 c-10 -12 -10 -15 4 -15 9 0 16 7 16 15 0 8 -2 15 -4 15 -2 0 -9 -7 -16 -15z"/> <path d="M1045 2190 c3 -5 17 -10 31 -10 13 0 24 5 24 10 0 6 -14 10 -31 10 -17 0 -28 -4 -24 -10z"/> <path d="M1040 2160 c0 -5 12 -10 26 -10 14 0 23 4 19 10 -3 6 -15 10 -26 10 -10 0 -19 -4 -19 -10z"/> <path d="M930 2092 c0 -12 47 -32 73 -31 17 0 13 5 -18 19 -46 21 -55 23 -55 12z"/> <path d="M880 2052 c0 -15 25 -21 41 -11 9 5 9 9 2 9 -6 0 -18 3 -27 6 -9 3 -16 2 -16 -4z"/> <path d="M588 1967 c-28 -68 11 -137 78 -137 29 0 44 8 75 39 22 21 39 48 39 60 0 12 -4 19 -10 16 -5 -3 -10 -13 -10 -21 0 -29 -56 -74 -92 -74 -52 0 -67 17 -70 80 -2 36 -6 49 -10 37z"/> <path d="M529 1350 c-27 -22 -14 -27 14 -6 26 20 49 10 98 -40 40 -40 89 -60 89 -35 0 10 -53 51 -65 51 -3 0 -21 11 -39 25 -40 30 -66 32 -97 5z m171 -65 c7 -8 8 -15 2 -15 -5 0 -15 7 -22 15 -7 8 -8 15 -2 15 5 0 15 -7 22 -15z"/> <path d="M1458 988 c-2 -35 -8 -72 -12 -83 -6 -15 -1 -13 18 8 32 34 41 67 29 103 -17 50 -31 39 -35 -28z"/> <path d="M1116 486 c-20 -18 -36 -43 -36 -55 0 -32 17 -25 45 19 37 59 59 67 90 34 17 -18 25 -22 25 -12 0 22 -33 48 -63 48 -15 0 -40 -13 -61 -34z"/> </g> </svg> 